<svg width="500" height="500" viewBox="0 0 1000 1000" fill="none" xmlns="http://www.w3.org/2000/svg">
<path d="M500 621.5C755.432 621.5 962.5 549.059 962.5 466.427C962.5 225.635 755.432 9 500 9C247.893 9 37.5 226.414 37.5 466.427C37.5 549.059 244.568 621.5 500 621.5Z" fill="white"/>
<path d="M955.473 466.42C955.473 229.467 751.507 16.0261 500 16.0261C251.793 16.0261 44.5266 230.272 44.5266 466.42C44.5266 483.955 55.532 502.168 78.1942 519.996C100.739 537.732 133.788 554.218 175.229 568.299C258.037 596.437 372.868 614.474 500 614.474C627.132 614.474 741.963 596.437 824.771 568.299C866.212 554.218 899.261 537.732 921.806 519.996C944.468 502.168 955.473 483.955 955.473 466.42ZM969.5 466.42C969.5 490.2 954.623 512.027 930.479 531.02C906.217 550.106 871.537 567.223 829.284 581.58C744.705 610.318 628.292 628.5 500 628.5C371.708 628.5 255.295 610.318 170.716 581.58C128.463 567.223 93.7827 550.106 69.5213 531.02C45.3774 512.027 30.5 490.2 30.5 466.42C30.5 222.564 244.008 2 500 2C759.342 2 969.5 221.81 969.5 466.42Z" fill="black"/>
<path d="M899.5 462.667C899.5 541.118 725.989 579.5 504.937 579.5C283.885 579.5 99 541.118 99 462.667C99 384.216 278.198 317.5 499.25 317.5C720.302 317.5 899.5 384.216 899.5 462.667Z" fill="#FADEAD"/>
<path d="M892.47 462.666C892.47 445.92 882.916 428.819 863.48 412.232C844.09 395.684 815.624 380.346 779.851 367.266C708.365 341.129 609.154 324.534 499.25 324.534C389.346 324.534 290.135 341.129 218.649 367.266C182.876 380.346 154.41 395.684 135.02 412.232C115.584 428.819 106.03 445.92 106.03 462.666C106.03 479.114 115.616 494.354 135.392 508.271C155.199 522.21 184.302 534.098 220.866 543.702C293.899 562.887 394.711 572.466 504.937 572.466C615.171 572.466 713.105 562.886 783.254 543.721C818.37 534.127 846.021 522.263 864.743 508.374C883.383 494.547 892.47 479.302 892.47 462.666ZM906.5 462.666C906.5 485.249 893.899 504.217 873.1 519.646C852.382 535.015 822.841 547.453 786.951 557.259C715.087 576.892 615.748 586.5 504.937 586.5C394.12 586.5 291.97 576.89 217.303 557.276C180.017 547.482 149.085 535.067 127.319 519.749C105.523 504.41 92.0001 485.438 92 462.666C92 440.191 104.844 419.538 125.914 401.556C147.03 383.535 177.177 367.488 213.832 354.086C287.203 327.259 388.111 310.5 499.25 310.5C610.389 310.5 711.297 327.259 784.668 354.086C821.323 367.488 851.47 383.535 872.586 401.556C893.656 419.538 906.5 440.191 906.5 462.666Z" fill="black"/>
<path d="M666.5 492.846C709.993 520.661 765.245 539.374 826.214 545L827.5 531.007C768.52 525.564 715.46 507.487 674.044 481L666.5 492.846Z" fill="black"/>
<path d="M500.941 391C442.561 391 399.979 402.376 371.839 413.9C357.778 419.658 347.347 425.443 340.371 429.841C336.883 432.04 334.258 433.893 332.476 435.221C331.585 435.885 330.905 436.418 330.432 436.798C330.195 436.988 330.01 437.141 329.877 437.252C329.811 437.307 329.757 437.352 329.717 437.386C329.696 437.404 329.679 437.419 329.665 437.43C329.658 437.436 329.652 437.442 329.647 437.446C329.644 437.449 329.641 437.451 329.639 437.453C329.636 437.455 329.633 437.458 334.215 442.765L329.632 437.459L327.268 439.499L327.204 442.621V442.635C327.204 442.646 327.203 442.662 327.203 442.685C327.202 442.729 327.2 442.797 327.198 442.888C327.194 443.071 327.188 443.345 327.179 443.707C327.16 444.432 327.13 445.511 327.086 446.914C326.999 449.719 326.855 453.819 326.628 458.977C326.176 469.295 325.397 483.834 324.088 500.703C321.466 534.503 316.738 577.399 308.339 614.376C299.936 651.365 284.585 695.951 271.25 731.464C264.597 749.182 258.472 764.57 254.012 775.526C251.783 781.003 249.97 785.37 248.716 788.364C248.089 789.861 247.602 791.015 247.273 791.793C247.108 792.181 246.983 792.476 246.899 792.672C246.857 792.77 246.826 792.844 246.805 792.893C246.794 792.917 246.787 792.935 246.782 792.947C246.779 792.953 246.778 792.957 246.777 792.96C246.776 792.961 246.775 792.962 246.775 792.963L245.5 795.939L316.849 939.83L408.895 984.419L568.492 998L675.533 958.152L757.5 839.906L756.67 836.776L749.892 838.573C756.67 836.776 756.67 836.776 756.67 836.775C756.67 836.773 756.669 836.772 756.668 836.769L756.638 836.655C756.617 836.574 756.584 836.453 756.542 836.294C756.457 835.974 756.332 835.498 756.167 834.873C755.837 833.624 755.351 831.782 754.727 829.411C753.479 824.67 751.681 817.816 749.479 809.367C745.073 792.469 739.053 769.195 732.59 743.689C719.649 692.614 704.99 632.801 697.949 597.258C690.906 561.706 685.077 522.899 681.005 492.935C678.97 477.963 677.377 465.221 676.293 456.224C675.751 451.726 675.336 448.165 675.058 445.732C674.918 444.515 674.813 443.58 674.743 442.95C674.707 442.635 674.68 442.397 674.663 442.238C674.654 442.159 674.648 442.099 674.644 442.059C674.642 442.04 674.639 442.025 674.638 442.016C674.638 442.011 674.638 442.007 674.638 442.005C674.637 442.004 674.637 442.003 674.637 442.003L674.392 439.764L672.89 438.087L667.667 442.765C672.889 438.087 672.885 438.083 672.882 438.079C672.88 438.077 672.876 438.073 672.873 438.07C672.867 438.063 672.861 438.055 672.853 438.047C672.839 438.031 672.821 438.013 672.802 437.991C672.762 437.948 672.713 437.894 672.653 437.831C672.534 437.704 672.372 437.536 672.169 437.33C671.761 436.918 671.181 436.353 670.419 435.659C668.894 434.27 666.639 432.362 663.563 430.113C657.408 425.612 647.986 419.757 634.577 413.954C607.742 402.34 565.097 391 500.941 391ZM500.941 405.023C563.418 405.023 604.136 416.06 629.007 426.823C641.449 432.208 649.964 437.542 655.284 441.432C657.946 443.379 659.813 444.967 660.975 446.026C660.976 446.027 660.977 446.028 660.978 446.028C661.023 446.418 661.071 446.852 661.125 447.328C661.407 449.786 661.824 453.374 662.37 457.901C663.461 466.955 665.063 479.769 667.109 494.823C671.198 524.911 677.071 564.032 684.193 599.984C691.317 635.945 706.068 696.108 718.996 747.133C725.469 772.678 731.498 795.984 735.908 812.904C738.114 821.365 739.915 828.229 741.165 832.98C741.611 834.676 741.989 836.103 742.288 837.236L666.516 946.545L566.547 983.76L412.672 970.666L327.282 929.3L260.932 795.491C261.146 794.982 261.388 794.411 261.652 793.781C262.922 790.748 264.752 786.338 267.001 780.813C271.498 769.767 277.671 754.257 284.379 736.394C297.766 700.743 313.393 655.432 322.014 617.482C330.638 579.52 335.429 535.835 338.07 501.788C339.393 484.733 340.182 470.033 340.639 459.591C340.868 454.37 341.014 450.21 341.103 447.351C341.115 446.963 341.125 446.599 341.135 446.259C342.64 445.148 344.872 443.581 347.85 441.704C354.183 437.711 363.893 432.308 377.153 426.877C403.655 416.024 444.435 405.023 500.941 405.023ZM338.792 448.077C338.791 448.078 338.789 448.08 338.788 448.081C338.786 448.083 338.784 448.084 338.784 448.085L338.792 448.077Z" fill="black"/>
<path d="M865 407.723C848.557 418.332 822.375 427.599 789.452 435.336C756.35 443.115 715.811 449.484 670.198 454L668.814 440.055C713.999 435.582 753.9 429.296 786.24 421.696C818.759 414.055 843.023 405.221 857.39 395.952L865 407.723ZM154.026 393C166.225 402.329 188.731 411.438 220.143 419.434C251.307 427.367 290.437 434.014 335.193 438.852L333.685 452.784C288.491 447.898 248.671 441.156 216.68 433.012C184.935 424.931 160.078 415.275 145.5 404.126L154.026 393Z" fill="black"/>
<path d="M784 365.26C754.823 394.762 708.515 418.497 652.542 433.5L648.904 419.976C703.468 405.351 747.195 382.542 774.016 355.421L784 365.26ZM240.547 349.5C265.588 377.999 308.995 402.277 364.283 418.065L360.424 431.529C303.716 415.335 257.478 390.006 230 358.734L240.547 349.5Z" fill="black"/>
<path d="M693.5 337.522C673.101 369.898 642.688 396.98 605.892 416L599.5 403.5C634.318 385.502 662.76 360.046 681.691 330L693.5 337.522Z" fill="black"/>
<path d="M313 337.522C333.399 369.898 363.812 396.98 400.608 416L407 403.5C372.182 385.502 343.74 360.046 324.809 330L313 337.522Z" fill="black"/>
<path d="M339 492.846C295.507 520.661 240.255 539.374 179.286 545L178 531.007C236.98 525.564 290.04 507.487 331.456 481L339 492.846Z" fill="black"/>
<path d="M508 318V398.5H494V318H508Z" fill="black"/>
<path d="M906 472.429C868.699 483.105 827.67 489 784.624 489C744.159 489 705.477 483.79 670 474.298L673.639 460.805C707.901 469.972 745.358 475.029 784.624 475.029C826.396 475.029 866.119 469.306 902.126 459L906 472.429Z" fill="black"/>
<path d="M101.639 457.5C135.901 466.767 173.358 471.877 212.624 471.877C254.699 471.877 294.35 468.38 330.126 458.029L334 471.603C296.468 482.461 255.367 486 212.624 486C172.159 486 133.477 480.734 98 471.139L101.639 457.5Z" fill="black"/>
<path d="M682.949 536.5C692.417 544.98 702.661 552.121 713.5 557.732L706.968 570C695.01 563.81 683.795 555.977 673.5 546.757L682.949 536.5Z" fill="black"/>
<path d="M321.051 536.5C311.583 544.98 301.339 552.121 290.5 557.732L297.032 570C308.99 563.81 320.205 555.977 330.5 546.757L321.051 536.5Z" fill="black"/>
<path d="M421.273 316C428.052 348.335 442.682 376.105 462 395.676L451.966 405.5C430.527 383.78 414.759 353.489 407.5 318.865L421.273 316Z" fill="black"/>
<path d="M581.853 315.5C575.136 347.835 560.641 375.605 541.5 395.176L551.442 405C572.684 383.28 588.307 352.989 595.5 318.365L581.853 315.5Z" fill="black"/>
<mask id="mask0_49_329" style="mask-type:alpha" maskUnits="userSpaceOnUse" x="35" y="9" width="930" height="489">
<path d="M499.224 9.51331C754.37 9.51331 961.214 225.92 961.214 466.438V466.457L961.215 466.475L962.011 477.219C956.386 454.319 941.585 432.55 919.252 412.611C894.287 390.322 859.884 370.292 818.275 353.492C735.056 319.891 622.935 299.176 499.613 299.176C374.628 299.176 261.148 320.453 177.6 354.859C135.826 372.062 101.516 392.555 76.9912 415.329C55.4195 435.361 41.3993 457.18 36.5605 480.091L37.2334 466.463L37.2344 466.45V466.438C37.2344 226.701 247.4 9.51353 499.224 9.51331Z" fill="white" stroke="#FDB957"/>
</mask>
<g mask="url(#mask0_49_329)" class="mushroom-cap">
<path d="M283.479 162.621L283.629 162.535L319.085 223.947L319.009 223.99L319.193 224.096L283.737 285.508L283.479 285.359V285.65H212.565V285.446L212.458 285.508L177.001 224.096L177.185 223.99L177.109 223.947L212.565 162.535V162.527H283.479V162.621Z" fill="#F9B228"/>
<path d="M283.479 293.536L283.629 293.451L319.085 354.863L319.01 354.905L319.193 355.011L283.737 416.423L283.479 416.274V416.566H212.565V416.361L212.458 416.423L177.001 355.011L177.184 354.905L177.109 354.863L212.565 293.451V293.443H283.479V293.536Z" fill="#FBB228"/>
<path d="M168.927 228.078L169.077 227.992L204.533 289.404L204.457 289.447L204.642 289.554L169.186 350.966L168.927 350.816V351.107H98.0137V350.903L97.9062 350.966L62.4492 289.554L62.6328 289.447L62.5576 289.404L98.0137 227.992V227.984H168.927V228.078Z" fill="#F68C23"/>
<path d="M168.927 97.1634L169.077 97.0775L204.533 158.49L204.457 158.533L204.642 158.639L169.186 220.05L168.927 219.901V220.193H98.0137V219.988L97.9062 220.05L62.4492 158.638L62.6318 158.532L62.5576 158.49L98.0137 97.0775V97.0696H168.927V97.1634Z" fill="#FCB856"/>
<path d="M283.479 31.7051L283.629 31.6191L319.085 93.0312L319.009 93.0742L319.193 93.1807L283.737 154.593L283.479 154.443V154.734H212.565V154.53L212.458 154.593L177.001 93.1807L177.185 93.0742L177.109 93.0312L212.565 31.6191V31.6113H283.479V31.7051Z" fill="#F79926"/>
<path d="M398.029 -32.973L398.18 -33.059L433.636 28.3531L433.56 28.3961L433.744 28.5026L398.287 89.9147L398.029 89.7653V90.0563H327.116V89.8512L327.008 89.9147L291.552 28.5026L291.735 28.3961L291.66 28.3531L327.116 -33.059V-33.0668H398.029V-32.973Z" fill="#FBBE30"/>
<path d="M398.029 97.9426L398.18 97.8567L433.636 159.269L433.56 159.312L433.744 159.418L398.287 220.829L398.029 220.68V220.972H327.116V220.766L327.008 220.829L291.552 159.418L291.735 159.312L291.66 159.269L327.116 97.8567V97.8489H398.029V97.9426Z" fill="#FAB71B"/>
<path d="M513.358 31.7061L513.51 31.6191L548.966 93.0312L548.891 93.0742L549.074 93.1807L513.617 154.593L513.358 154.443V154.734H442.446V154.529L442.338 154.593L406.882 93.1807L407.065 93.0742L406.99 93.0312L442.446 31.6191V31.6113H513.358V31.7061Z" fill="#FCD16B"/>
<path d="M627.91 -32.972L628.062 -33.059L663.518 28.3531L663.441 28.3961L663.625 28.5026L628.169 89.9147L627.91 89.7653V90.0563H556.998V89.8512L556.89 89.9147L521.434 28.5026L521.617 28.3961L521.542 28.3531L556.998 -33.059V-33.0668H627.91V-32.972Z" fill="#FFDE8D"/>
<path d="M627.131 97.9436L627.282 97.8567L662.738 159.269L662.662 159.312L662.846 159.418L627.39 220.829L627.131 220.68V220.972H556.219V220.766L556.11 220.829L520.654 159.418L520.838 159.312L520.763 159.269L556.219 97.8567V97.8489H627.131V97.9436Z" fill="#FFEEC1"/>
<path d="M512.579 162.622L512.73 162.535L548.187 223.947L548.11 223.99L548.294 224.096L512.838 285.508L512.579 285.359V285.65H441.667V285.445L441.559 285.508L406.103 224.096L406.286 223.99L406.211 223.947L441.667 162.535V162.527H512.579V162.622Z" fill="#FFE3A0"/>
<path d="M398.029 228.078L398.18 227.992L433.636 289.404L433.56 289.447L433.744 289.554L398.287 350.966L398.029 350.816V351.107H327.116V350.902L327.008 350.966L291.552 289.554L291.735 289.447L291.66 289.404L327.116 227.992V227.984H398.029V228.078Z" fill="#FFEBBC"/>
<path d="M741.682 164.179L741.832 164.093L777.289 225.505L777.213 225.548L777.396 225.655L741.94 287.067L741.682 286.917V287.208H670.77V287.003L670.661 287.067L635.205 225.655L635.388 225.548L635.312 225.505L670.77 164.093V164.085H741.682V164.179Z" fill="#FEF3D7"/>
<path d="M93.2306 361.043H165.702C97.3346 389.879 51.5123 427.822 39.7337 469.555L37.5137 444.229L65.1773 311.755L93.2306 361.043Z" fill="#FA9429"/>
</g>
<path d="M955.473 466.42C955.473 229.467 751.507 16.0261 500 16.0261C251.793 16.0261 44.5266 230.272 44.5266 466.42C44.5266 483.955 55.532 502.168 78.1942 519.996C100.739 537.732 133.788 554.218 175.229 568.299C258.037 596.437 372.868 614.474 500 614.474C627.132 614.474 741.963 596.437 824.771 568.299C866.212 554.218 899.261 537.732 921.806 519.996C944.468 502.168 955.473 483.955 955.473 466.42ZM969.5 466.42C969.5 490.2 954.623 512.027 930.479 531.02C906.217 550.106 871.537 567.223 829.284 581.58C744.705 610.319 628.292 628.5 500 628.5C371.708 628.5 255.295 610.319 170.716 581.58C128.463 567.223 93.7827 550.106 69.5213 531.02C45.3774 512.027 30.5 490.2 30.5 466.42C30.5 222.564 244.008 2 500 2C759.342 2 969.5 221.81 969.5 466.42Z" fill="black"/>
<path d="M314.997 615.966C297.962 690.921 253 795.801 253 795.801L321.89 934.672L410.667 977.659L567.507 991L671.08 952.46L750 838.659C750 838.659 705.314 670.174 691.14 598.654C676.965 527.134 667.72 442.764 667.72 442.764C667.72 442.764 627.602 398 500.884 398C385.923 398 334.048 442.764 334.048 442.764C334.048 442.764 332.031 541.011 314.997 615.966Z" fill="white"/>
<path d="M500.941 391C442.561 391 399.979 402.376 371.839 413.9C357.778 419.658 347.347 425.443 340.371 429.841C336.883 432.04 334.258 433.893 332.476 435.221C331.585 435.885 330.905 436.418 330.432 436.798C330.195 436.988 330.01 437.141 329.877 437.252C329.811 437.307 329.757 437.352 329.717 437.386C329.696 437.404 329.679 437.419 329.665 437.43C329.658 437.436 329.652 437.442 329.647 437.446C329.644 437.449 329.641 437.451 329.639 437.453C329.636 437.455 329.633 437.458 334.215 442.765L329.632 437.459L327.268 439.499L327.204 442.621V442.635C327.204 442.646 327.203 442.662 327.203 442.685C327.202 442.729 327.2 442.797 327.198 442.888C327.194 443.071 327.188 443.345 327.179 443.707C327.16 444.432 327.13 445.511 327.086 446.914C326.999 449.719 326.855 453.819 326.628 458.977C326.176 469.295 325.397 483.834 324.088 500.703C321.466 534.503 316.738 577.399 308.339 614.376C299.936 651.365 284.585 695.952 271.25 731.464C264.597 749.182 258.472 764.57 254.012 775.526C251.783 781.003 249.97 785.37 248.716 788.364C248.089 789.861 247.602 791.015 247.273 791.793C247.108 792.181 246.983 792.476 246.899 792.672C246.857 792.77 246.826 792.844 246.805 792.893C246.794 792.917 246.787 792.935 246.782 792.947C246.78 792.953 246.778 792.957 246.777 792.96C246.776 792.961 246.775 792.963 246.775 792.963L245.5 795.939L316.849 939.83L408.895 984.419L568.492 998L675.533 958.152L757.5 839.906L756.67 836.776L749.892 838.573C756.67 836.776 756.67 836.776 756.67 836.775C756.67 836.773 756.669 836.772 756.668 836.769L756.638 836.655C756.617 836.574 756.584 836.453 756.542 836.294C756.457 835.974 756.332 835.498 756.167 834.873C755.837 833.624 755.351 831.782 754.727 829.411C753.479 824.67 751.681 817.816 749.479 809.367C745.074 792.469 739.053 769.195 732.59 743.689C719.649 692.614 704.99 632.801 697.949 597.258C690.906 561.706 685.077 522.899 681.005 492.935C678.97 477.963 677.377 465.221 676.293 456.224C675.751 451.726 675.336 448.165 675.058 445.732C674.918 444.515 674.813 443.58 674.743 442.95C674.707 442.635 674.68 442.397 674.663 442.238C674.654 442.159 674.648 442.099 674.644 442.059C674.642 442.04 674.639 442.025 674.638 442.016C674.638 442.011 674.638 442.007 674.638 442.005L674.637 442.003L674.392 439.764L672.89 438.087L667.667 442.765C672.889 438.087 672.886 438.083 672.882 438.079C672.88 438.077 672.876 438.073 672.873 438.07C672.867 438.063 672.861 438.055 672.853 438.047C672.839 438.031 672.821 438.013 672.802 437.991C672.762 437.948 672.713 437.894 672.653 437.831C672.534 437.704 672.373 437.536 672.169 437.33C671.761 436.918 671.181 436.353 670.419 435.659C668.894 434.27 666.639 432.362 663.563 430.113C657.408 425.612 647.986 419.757 634.577 413.954C607.742 402.34 565.097 391 500.941 391ZM500.941 405.023C563.418 405.023 604.136 416.06 629.007 426.823C641.449 432.208 649.964 437.542 655.284 441.432C657.946 443.379 659.813 444.967 660.975 446.026C660.976 446.027 660.977 446.028 660.978 446.028C661.023 446.418 661.071 446.852 661.125 447.328C661.407 449.786 661.824 453.374 662.37 457.901C663.461 466.955 665.063 479.769 667.109 494.823C671.198 524.911 677.071 564.032 684.193 599.984C691.317 635.945 706.068 696.108 718.996 747.133C725.469 772.678 731.498 795.984 735.908 812.904C738.114 821.365 739.915 828.229 741.165 832.98C741.611 834.676 741.989 836.103 742.288 837.236L666.516 946.545L566.547 983.76L412.672 970.666L327.282 929.3L260.932 795.491C261.146 794.982 261.388 794.411 261.652 793.781C262.922 790.748 264.752 786.338 267.001 780.813C271.498 769.767 277.671 754.257 284.379 736.394C297.766 700.743 313.393 655.432 322.014 617.482C330.638 579.52 335.429 535.835 338.07 501.788C339.393 484.733 340.182 470.033 340.639 459.591C340.868 454.37 341.014 450.21 341.103 447.351C341.115 446.963 341.125 446.599 341.135 446.259C342.64 445.148 344.872 443.581 347.85 441.704C354.183 437.711 363.893 432.308 377.153 426.877C403.655 416.024 444.435 405.023 500.941 405.023ZM338.792 448.077C338.792 448.077 338.789 448.08 338.788 448.081C338.786 448.083 338.784 448.085 338.784 448.085L338.792 448.077Z" fill="black"/>
<path d="M611 496.25C611 515.22 601.598 529 590 529C578.402 529 569 515.22 569 496.25C569 477.28 578.402 463.5 590 463.5C601.598 463.5 611 477.28 611 496.25Z" fill="black"/>
<path d="M432 496.25C432 515.22 422.374 529 410.5 529C398.626 529 389 515.22 389 496.25C389 477.28 398.626 463.5 410.5 463.5C422.374 463.5 432 477.28 432 496.25Z" fill="black"/>
<path d="M541.737 544.367C544.302 541.466 548.733 541.194 551.633 543.759C554.534 546.324 554.806 550.755 552.241 553.656C540.345 567.111 521.303 575.5 500.25 575.5C479.197 575.5 460.155 567.111 448.259 553.656C445.694 550.755 445.966 546.324 448.867 543.759C451.767 541.194 456.198 541.466 458.763 544.367C467.72 554.498 482.777 561.477 500.25 561.477C517.723 561.477 532.78 554.498 541.737 544.367Z" fill="black"/>
<path d="M359.824 855.994L477.567 843.712L634.72 874.515L745.418 831.675L750.5 844.691L636.006 889L476.927 857.819L356.336 870.399L250.5 801.698L258.16 790L359.824 855.994Z" fill="black"/>
<path d="M642 884.995L572.403 995L560.5 987.505L630.097 877.5L642 884.995Z" fill="black"/>
<path d="M352 866.369L404.73 980.5L417.5 974.631L364.77 860.5L352 866.369Z" fill="black"/>
</svg>
